# xmcd
#
# Track frame offsets:
#	150
#	16013
#	33540
#	45459
#	56798
#	69190
#	87108
#	93833
#	107639
#	120448
#	134178
#	145143
#	155387
#	166554
#	178783
#	192578
#	205274
#	218085
#
# Disc length: 3117 seconds
#
# Revision: 1
# Processed by: cddbd v1.5.2PL0 Copyright (c) Steve Scherf et al.
# Submitted via: audiograbber 1.83.01
#
DISCID=f10c2b12
DTITLE=Don Williams - Goue Treffers
DYEAR=1900
DGENRE=
TTITLE0=I,ve been loved by the best
TTITLE1=I believe in you
TTITLE2=Tulsa time
TTITLE3=Storybook Children
TTITLE4=She walked out on the way to be a woman
TTITLE5=Good ole boys like me
TTITLE6=Lord I hope this day is good
TTITLE7=Ruby Tuesday
TTITLE8=Amanda
TTITLE9=Your're my best friend
TTITLE10=Always something there to remind me
TTITLE11=Take my hand for a while
TTITLE12=Spend some time
TTITLE13=Follow me to Louisville
TTITLE14=Where do we go from here
TTITLE15=There has never been a time
TTITLE16=Coming appart
TTITLE17=Tears
EXTD=
EXTT0=
EXTT1=
EXTT2=
EXTT3=
EXTT4=
EXTT5=
EXTT6=
EXTT7=
EXTT8=
EXTT9=
EXTT10=
EXTT11=
EXTT12=
EXTT13=
EXTT14=
EXTT15=
EXTT16=
EXTT17=
PLAYORDER=
